<?xml version="1.0" encoding="UTF-8" standalone="no"?>
<svg
   xmlns:dc="http://purl.org/dc/elements/1.1/"
   xmlns:cc="http://creativecommons.org/ns#"
   xmlns:rdf="http://www.w3.org/1999/02/22-rdf-syntax-ns#"
   xmlns:svg="http://www.w3.org/2000/svg"
   xmlns="http://www.w3.org/2000/svg"
   viewBox="0 0 645.66248 495.77499"
   height="495.77499"
   width="645.66248"
   xml:space="preserve"
   version="1.1"
   id="svg2"><metadata
     id="metadata8"><rdf:RDF><cc:Work
         rdf:about=""><dc:format>image/svg+xml</dc:format><dc:type
           rdf:resource="http://purl.org/dc/dcmitype/StillImage" /></cc:Work></rdf:RDF></metadata><defs
     id="defs6" /><g
     transform="matrix(1.25,0,0,-1.25,0,495.775)"
     id="g10"><g
       transform="scale(0.1,0.1)"
       id="g12"><path
         id="path14"
         style="fill:#af783c;fill-opacity:1;fill-rule:nonzero;stroke:none"
         d="m 18.9063,321 c 4.7851,-0.66 11.7382,-0.871 19.121,-0.871 40.6329,0 62.3637,22.59 62.3637,62.141 0.214,34.55 -19.3363,56.492 -59.3168,56.492 -9.7851,0 -17.1679,-0.864 -22.1679,-1.953 l 0,-115.809 z M 0,450.5 c 11.5234,1.949 25.207,3.262 40.207,3.262 27.1563,0 46.4922,-6.52 59.3164,-18.25 13.2496,-11.961 20.8596,-28.903 20.8596,-52.59 0,-23.902 -7.61,-43.461 -21.0783,-56.922 C 85.4023,312.301 62.8008,304.91 34.3359,304.91 20.6445,304.91 9.5625,305.57 0,306.648 L 0,450.5" /><path
         id="path16"
         style="fill:#af783c;fill-opacity:1;fill-rule:nonzero;stroke:none"
         d="m 156.914,358.578 c 0,-23.019 13.035,-40.406 31.731,-40.406 18.25,0 31.941,17.168 31.941,40.848 0,17.82 -8.914,40.199 -31.516,40.199 -22.371,0 -32.156,-20.86 -32.156,-40.641 z m 83.223,1.102 c 0,-38.899 -27.157,-55.848 -52.364,-55.848 -28.253,0 -50.41,20.859 -50.41,54.109 0,34.981 23.25,55.618 52.149,55.618 30.207,0 50.625,-21.95 50.625,-53.879" /><path
         id="path18"
         style="fill:#af783c;fill-opacity:1;fill-rule:nonzero;stroke:none"
         d="m 270.371,411.391 14.133,-53.45 c 2.82,-11.742 5.641,-22.601 7.598,-33.472 l 0.652,0 c 2.391,10.652 5.867,21.953 9.348,33.242 l 17.168,53.68 16.074,0 16.297,-52.59 c 3.906,-12.602 6.953,-23.68 9.343,-34.332 l 0.649,0 c 1.734,10.652 4.566,21.73 8.047,34.109 l 14.988,52.813 18.906,0 -33.894,-105.172 -17.383,0 -16.086,50.203 c -3.691,11.719 -6.738,22.148 -9.348,34.547 l -0.425,0 c -2.61,-12.61 -5.872,-23.481 -9.563,-34.77 l -16.953,-49.98 -17.383,0 -31.719,105.172 19.551,0" /><path
         id="path20"
         style="fill:#af783c;fill-opacity:1;fill-rule:nonzero;stroke:none"
         d="m 422.734,382.922 c 0,11.078 -0.222,19.769 -0.871,28.469 l 16.946,0 1.086,-17.391 0.437,0 c 5.215,9.781 17.383,19.559 34.766,19.559 14.558,0 37.16,-8.688 37.16,-44.758 l 0,-62.582 -19.121,0 0,60.633 c 0,16.937 -6.313,31.07 -24.336,31.07 -12.395,0 -22.168,-8.922 -25.649,-19.563 -0.867,-2.39 -1.297,-5.66 -1.297,-8.91 l 0,-63.23 -19.121,0 0,76.703" /><path
         id="path22"
         style="fill:#af783c;fill-opacity:1;fill-rule:nonzero;stroke:none"
         d="m 543.359,306.219 19.1211,0 0,154.281 -19.1211,0 0,-154.281 z" /><path
         id="path24"
         style="fill:#af783c;fill-opacity:1;fill-rule:nonzero;stroke:none"
         d="m 606.594,358.578 c 0,-23.019 13.035,-40.406 31.726,-40.406 18.25,0 31.946,17.168 31.946,40.848 0,17.82 -8.918,40.199 -31.516,40.199 -22.371,0 -32.156,-20.86 -32.156,-40.641 z m 83.219,1.102 c 0,-38.899 -27.157,-55.848 -52.364,-55.848 -28.25,0 -50.406,20.859 -50.406,54.109 0,34.981 23.25,55.618 52.145,55.618 30.207,0 50.625,-21.95 50.625,-53.879" /><path
         id="path26"
         style="fill:#af783c;fill-opacity:1;fill-rule:nonzero;stroke:none"
         d="m 769.375,359.891 c -20.859,0.429 -44.539,-3.262 -44.539,-23.692 0,-12.597 8.25,-18.238 17.809,-18.238 13.91,0 22.816,8.687 25.863,17.598 0.652,2.16 0.867,4.339 0.867,6.082 l 0,18.25 z m 18.469,-28.461 c 0,-9.141 0.437,-18.039 1.519,-25.211 l -17.168,0 -1.519,13.25 -0.649,0 c -5.867,-8.25 -17.168,-15.637 -32.156,-15.637 -21.301,0 -32.156,14.988 -32.156,30.199 0,25.418 22.598,39.328 63.223,39.11 l 0,2.179 c 0,8.469 -2.383,24.34 -23.899,24.11 -10,0 -20.203,-2.821 -27.598,-7.821 l -4.343,12.821 c 8.687,5.429 21.511,9.129 34.761,9.129 32.161,0 39.985,-21.95 39.985,-42.809 l 0,-39.32" /><path
         id="path28"
         style="fill:#af783c;fill-opacity:1;fill-rule:nonzero;stroke:none"
         d="m 890.43,368.578 c 0,2.391 -0.215,5.652 -0.867,8.043 -2.825,11.949 -13.254,21.938 -27.598,21.938 -19.77,0 -31.504,-17.379 -31.504,-40.411 0,-21.296 10.644,-38.886 31.07,-38.886 12.824,0 24.555,8.687 28.032,22.808 0.652,2.61 0.867,5.211 0.867,8.262 l 0,18.246 z m 18.906,91.922 0,-127.121 c 0,-9.348 0.43,-19.988 0.867,-27.16 l -16.949,0 -0.871,18.25 -0.645,0 c -5.652,-11.731 -18.254,-20.637 -35.422,-20.637 -25.418,0 -45.195,21.508 -45.195,53.449 -0.215,34.989 21.731,56.278 47.149,56.278 16.3,0 26.945,-7.598 31.73,-15.868 l 0.43,0 0,62.809 18.906,0" /><path
         id="path30"
         style="fill:#af783c;fill-opacity:1;fill-rule:nonzero;stroke:none"
         d="m 981.301,306.219 0,11.742 14.988,14.551 c 36.061,34.34 52.581,52.59 52.581,73.879 0,14.339 -6.73,27.589 -27.82,27.589 -12.81,0 -23.46,-6.511 -29.976,-11.949 l -6.086,13.481 c 9.563,8.027 23.682,14.328 39.772,14.328 30.42,0 43.23,-20.86 43.23,-41.059 0,-26.082 -18.9,-47.152 -48.67,-75.832 l -11.08,-10.429 0,-0.442 63.22,0 0,-15.859 -90.159,0" /><path
         id="path32"
         style="fill:#af783c;fill-opacity:1;fill-rule:nonzero;stroke:none"
         d="m 1110.18,376.18 c 0,-36.719 11.29,-57.578 28.68,-57.578 19.33,0 28.68,22.82 28.68,58.886 0,34.774 -8.69,57.582 -28.68,57.582 -16.52,0 -28.68,-20.422 -28.68,-58.89 z m 76.7,2.179 c 0,-48.019 -18.04,-74.527 -49.12,-74.527 -27.58,0 -46.49,25.859 -46.93,72.578 0,47.578 20.64,73.43 49.33,73.43 29.55,0 46.72,-26.5 46.72,-71.481" /><path
         id="path34"
         style="fill:#af783c;fill-opacity:1;fill-rule:nonzero;stroke:none"
         d="m 1221.67,376.18 c 0,-36.719 11.3,-57.578 28.68,-57.578 19.34,0 28.68,22.82 28.68,58.886 0,34.774 -8.69,57.582 -28.68,57.582 -16.51,0 -28.68,-20.422 -28.68,-58.89 z m 76.7,2.179 c 0,-48.019 -18.04,-74.527 -49.11,-74.527 -27.59,0 -46.5,25.859 -46.94,72.578 0,47.578 20.65,73.43 49.33,73.43 29.55,0 46.72,-26.5 46.72,-71.481" /><path
         id="path36"
         style="fill:#af783c;fill-opacity:1;fill-rule:nonzero;stroke:none"
         d="m 1309.47,279.281 c 4.79,13.028 10.66,36.289 13.04,52.149 l 21.3,2.172 c -5.22,-18.473 -14.78,-42.59 -20.86,-52.801 l -13.48,-1.52" /><path
         id="path38"
         style="fill:#af783c;fill-opacity:1;fill-rule:nonzero;stroke:none"
         d="m 1378.14,376.18 c 0,-36.719 11.3,-57.578 28.69,-57.578 19.33,0 28.68,22.82 28.68,58.886 0,34.774 -8.69,57.582 -28.68,57.582 -16.52,0 -28.69,-20.422 -28.69,-58.89 z m 76.7,2.179 c 0,-48.019 -18.02,-74.527 -49.1,-74.527 -27.6,0 -46.5,25.859 -46.93,72.578 0,47.578 20.64,73.43 49.32,73.43 29.56,0 46.71,-26.5 46.71,-71.481" /><path
         id="path40"
         style="fill:#af783c;fill-opacity:1;fill-rule:nonzero;stroke:none"
         d="m 1489.64,376.18 c 0,-36.719 11.3,-57.578 28.68,-57.578 19.34,0 28.68,22.82 28.68,58.886 0,34.774 -8.69,57.582 -28.68,57.582 -16.51,0 -28.68,-20.422 -28.68,-58.89 z m 76.7,2.179 c 0,-48.019 -18.03,-74.527 -49.1,-74.527 -27.6,0 -46.51,25.859 -46.94,72.578 0,47.578 20.65,73.43 49.33,73.43 29.55,0 46.71,-26.5 46.71,-71.481" /><path
         id="path42"
         style="fill:#af783c;fill-opacity:1;fill-rule:nonzero;stroke:none"
         d="m 1601.13,376.18 c 0,-36.719 11.3,-57.578 28.68,-57.578 19.35,0 28.69,22.82 28.69,58.886 0,34.774 -8.7,57.582 -28.69,57.582 -16.51,0 -28.68,-20.422 -28.68,-58.89 z m 76.7,2.179 c 0,-48.019 -18.03,-74.527 -49.1,-74.527 -27.6,0 -46.5,25.859 -46.93,72.578 0,47.578 20.64,73.43 49.32,73.43 29.55,0 46.71,-26.5 46.71,-71.481" /><path
         id="path44"
         style="fill:#af783c;fill-opacity:1;fill-rule:nonzero;stroke:none"
         d="m 1757.17,421.82 0,-51.07 49.11,0 0,-13.039 -49.11,0 0,-51.492 -13.91,0 0,51.492 -49.1,0 0,13.039 49.1,0 0,51.07 13.91,0" /><path
         id="path46"
         style="fill:#af783c;fill-opacity:1;fill-rule:nonzero;stroke:none"
         d="m 1895.84,348.371 c 0,-2.379 0.22,-4.781 0.88,-6.949 3.48,-13.262 14.76,-22.383 28.67,-22.383 20.22,0 31.94,16.301 31.94,40.41 0,21.09 -10.86,39.11 -31.5,39.11 -12.82,0 -24.99,-9.118 -28.9,-23.457 -0.65,-2.403 -1.09,-4.993 -1.09,-8.043 l 0,-18.688 z m -18.9,112.129 18.9,0 0,-66.059 0.44,0 c 6.74,11.731 18.91,19.118 35.85,19.118 26.29,0 44.55,-21.727 44.55,-53.45 0,-37.589 -23.91,-56.277 -47.37,-56.277 -15.21,0 -27.38,5.867 -35.42,19.559 l -0.43,0 -1.1,-17.172 -16.29,0 c 0.43,7.172 0.87,17.812 0.87,27.16 l 0,127.121" /><path
         id="path48"
         style="fill:#af783c;fill-opacity:1;fill-rule:nonzero;stroke:none"
         d="m 2000.61,378.57 c 0,12.399 -0.22,23.039 -0.87,32.821 l 16.72,0 0.87,-20.86 0.66,0 c 4.77,14.117 16.51,23.028 29.33,23.028 1.96,0 3.48,-0.219 5.22,-0.438 l 0,-18.031 c -1.96,0.441 -3.92,0.441 -6.52,0.441 -13.48,0 -23.03,-10 -25.65,-24.34 -0.43,-2.613 -0.64,-5.871 -0.64,-8.921 l 0,-56.051 -19.12,0 0,72.351" /><path
         id="path50"
         style="fill:#af783c;fill-opacity:1;fill-rule:nonzero;stroke:none"
         d="m 2126,359.891 c -20.86,0.429 -44.54,-3.262 -44.54,-23.692 0,-12.597 8.25,-18.238 17.81,-18.238 13.9,0 22.82,8.687 25.86,17.598 0.65,2.16 0.87,4.339 0.87,6.082 l 0,18.25 z m 18.46,-28.461 c 0,-9.141 0.44,-18.039 1.53,-25.211 l -17.17,0 -1.52,13.25 -0.65,0 c -5.87,-8.25 -17.17,-15.637 -32.16,-15.637 -21.3,0 -32.16,14.988 -32.16,30.199 0,25.418 22.6,39.328 63.24,39.11 l 0,2.179 c 0,8.469 -2.4,24.34 -23.91,24.11 -10,0 -20.2,-2.821 -27.6,-7.821 l -4.34,12.821 c 8.69,5.429 21.51,9.129 34.76,9.129 32.16,0 39.98,-21.95 39.98,-42.809 l 0,-39.32" /><path
         id="path52"
         style="fill:#af783c;fill-opacity:1;fill-rule:nonzero;stroke:none"
         d="m 2175.35,382.922 c 0,11.078 -0.21,19.769 -0.87,28.469 l 16.95,0 1.09,-17.391 0.43,0 c 5.21,9.781 17.38,19.559 34.76,19.559 14.57,0 37.16,-8.688 37.16,-44.758 l 0,-62.582 -19.12,0 0,60.633 c 0,16.937 -6.3,31.07 -24.33,31.07 -12.4,0 -22.17,-8.922 -25.65,-19.563 -0.87,-2.39 -1.3,-5.66 -1.3,-8.91 l 0,-63.23 -19.12,0 0,76.703" /><path
         id="path54"
         style="fill:#af783c;fill-opacity:1;fill-rule:nonzero;stroke:none"
         d="m 2367.68,368.578 c 0,2.391 -0.22,5.652 -0.87,8.043 -2.83,11.949 -13.26,21.938 -27.59,21.938 -19.78,0 -31.51,-17.379 -31.51,-40.411 0,-21.296 10.65,-38.886 31.07,-38.886 12.82,0 24.55,8.687 28.03,22.808 0.65,2.61 0.87,5.211 0.87,8.262 l 0,18.246 z m 18.9,91.922 0,-127.121 c 0,-9.348 0.43,-19.988 0.87,-27.16 l -16.94,0 -0.88,18.25 -0.65,0 c -5.65,-11.731 -18.25,-20.637 -35.42,-20.637 -25.42,0 -45.19,21.508 -45.19,53.449 -0.22,34.989 21.73,56.278 47.15,56.278 16.3,0 26.94,-7.598 31.73,-15.868 l 0.43,0 0,62.809 18.9,0" /><path
         id="path56"
         style="fill:#af783c;fill-opacity:1;fill-rule:nonzero;stroke:none"
         d="m 2464.63,306.219 19.1211,0 0,154.281 -19.1211,0 0,-154.281 z" /><path
         id="path58"
         style="fill:#af783c;fill-opacity:1;fill-rule:nonzero;stroke:none"
         d="m 2527.87,358.578 c 0,-23.019 13.04,-40.406 31.73,-40.406 18.24,0 31.93,17.168 31.93,40.848 0,17.82 -8.9,40.199 -31.5,40.199 -22.38,0 -32.16,-20.86 -32.16,-40.641 z m 83.22,1.102 c 0,-38.899 -27.15,-55.848 -52.37,-55.848 -28.24,0 -50.41,20.859 -50.41,54.109 0,34.981 23.25,55.618 52.15,55.618 30.2,0 50.63,-21.95 50.63,-53.879" /><path
         id="path60"
         style="fill:#af783c;fill-opacity:1;fill-rule:nonzero;stroke:none"
         d="m 2706.07,369.879 c 0,3.262 -0.21,6.09 -1.09,8.48 -3.48,11.301 -12.6,20.422 -26.72,20.422 -18.25,0 -31.29,-15.422 -31.29,-39.761 0,-20.641 10.65,-37.809 31.08,-37.809 11.94,0 22.59,7.391 26.5,19.559 1.08,3.261 1.52,6.949 1.52,10.222 l 0,18.887 z m 19.13,-48.231 c 0,-24.339 -5,-38.898 -15,-48.238 -10.43,-9.34 -25.2,-12.601 -38.46,-12.601 -12.6,0 -26.51,3.043 -34.98,8.691 l 4.78,14.781 c 6.96,-4.562 17.82,-8.48 30.85,-8.48 19.56,0 33.9,10.219 33.9,36.937 l 0,11.524 -0.43,0 c -5.65,-9.782 -17.17,-17.614 -33.47,-17.614 -26.07,0 -44.75,22.172 -44.75,51.293 0,35.618 23.24,55.618 47.57,55.618 18.26,0 28.03,-9.34 32.82,-18.028 l 0.43,0 0.65,15.86 16.95,0 c -0.65,-7.403 -0.86,-16.09 -0.86,-28.692 l 0,-61.051" /><path
         id="path62"
         style="fill:#af783c;fill-opacity:1;fill-rule:nonzero;stroke:none"
         d="m 2768.68,358.578 c 0,-23.019 13.04,-40.406 31.73,-40.406 18.24,0 31.93,17.168 31.93,40.848 0,17.82 -8.9,40.199 -31.5,40.199 -22.38,0 -32.16,-20.86 -32.16,-40.641 z m 83.22,1.102 c 0,-38.899 -27.15,-55.848 -52.37,-55.848 -28.24,0 -50.41,20.859 -50.41,54.109 0,34.981 23.25,55.618 52.15,55.618 30.2,0 50.63,-21.95 50.63,-53.879" /><path
         id="path64"
         style="fill:#af783c;fill-opacity:1;fill-rule:nonzero;stroke:none"
         d="m 2873.44,325.559 c 5.87,-3.481 15.86,-7.387 25.43,-7.387 13.68,0 20.2,6.738 20.2,15.648 0,9.121 -5.44,13.899 -19.34,19.121 -19.12,6.95 -28.03,17.168 -28.03,29.758 0,16.961 13.91,30.86 36.29,30.86 10.64,0 19.99,-2.829 25.64,-6.52 l -4.57,-13.91 c -4.12,2.609 -11.73,6.301 -21.5,6.301 -11.31,0 -17.38,-6.508 -17.38,-14.328 0,-8.692 6.07,-12.614 19.76,-18.043 18.04,-6.739 27.6,-15.86 27.6,-31.5 0,-18.7 -14.56,-31.727 -39.11,-31.727 -11.52,0 -22.16,3.039 -29.55,7.387 l 4.56,14.34" /><path
         id="path66"
         style="fill:#af783c;fill-opacity:1;fill-rule:nonzero;stroke:none"
         d="m 3008.19,306.219 0,105.172 19.12,0 0,-105.172 -19.12,0 z m 21.3,134.722 c 0,-6.519 -4.57,-11.73 -12.17,-11.73 -6.95,0 -11.52,5.211 -11.52,11.73 0,6.508 4.79,11.95 11.95,11.95 6.96,0 11.74,-5.211 11.74,-11.95" /><path
         id="path68"
         style="fill:#af783c;fill-opacity:1;fill-rule:nonzero;stroke:none"
         d="m 3059.04,382.922 c 0,11.078 -0.21,19.769 -0.87,28.469 l 16.96,0 1.08,-17.391 0.43,0 c 5.22,9.781 17.38,19.559 34.77,19.559 14.56,0 37.15,-8.688 37.15,-44.758 l 0,-62.582 -19.12,0 0,60.633 c 0,16.937 -6.3,31.07 -24.33,31.07 -12.39,0 -22.16,-8.922 -25.64,-19.563 -0.87,-2.39 -1.31,-5.66 -1.31,-8.91 l 0,-63.23 -19.12,0 0,76.703" /><path
         id="path70"
         style="fill:#af783c;fill-opacity:1;fill-rule:nonzero;stroke:none"
         d="m 3233.13,411.391 20.64,-58.891 c 3.48,-9.781 6.31,-18.469 8.48,-27.16 l 0.65,0 c 2.39,8.691 5.43,17.379 8.91,27.16 l 20.43,58.891 19.99,0 -41.29,-105.172 -18.25,0 -39.98,105.172 20.42,0" /><path
         id="path72"
         style="fill:#af783c;fill-opacity:1;fill-rule:nonzero;stroke:none"
         d="m 3394.82,369.012 c 0.22,11.957 -5,30.859 -26.5,30.859 -19.56,0 -27.81,-17.601 -29.34,-30.859 l 55.84,0 z m -56.05,-13.692 c 0.43,-25.851 16.73,-36.5 36.06,-36.5 13.7,0 22.16,2.391 29.12,5.442 l 3.47,-13.692 c -6.73,-3.039 -18.46,-6.738 -35.19,-6.738 -32.38,0 -51.72,21.508 -51.72,53.227 0,31.73 18.69,56.5 49.32,56.5 34.55,0 43.46,-29.989 43.46,-49.321 0,-3.918 -0.21,-6.738 -0.65,-8.918 l -73.87,0" /><path
         id="path74"
         style="fill:#af783c;fill-opacity:1;fill-rule:nonzero;stroke:none"
         d="m 3511.97,309.91 c -5,-2.379 -16.08,-6.078 -30.2,-6.078 -31.73,0 -52.38,21.508 -52.38,53.668 0,32.371 22.17,56.059 56.51,56.059 11.29,0 21.29,-2.829 26.5,-5.649 l -4.34,-14.558 c -4.56,2.386 -11.73,5 -22.16,5 -24.12,0 -37.16,-18.043 -37.16,-39.774 0,-24.328 15.64,-39.316 36.5,-39.316 10.86,0 18.04,2.597 23.47,5 l 3.26,-14.352" /><path
         id="path76"
         style="fill:#af783c;fill-opacity:1;fill-rule:nonzero;stroke:none"
         d="m 3560.22,436.59 0,-25.199 27.38,0 0,-14.559 -27.38,0 0,-56.711 c 0,-13.043 3.7,-20.422 14.34,-20.422 5.22,0 8.26,0.43 11.08,1.301 l 0.87,-14.559 c -3.69,-1.3 -9.56,-2.609 -16.94,-2.609 -8.92,0 -16.08,3.039 -20.64,8.027 -5.22,5.871 -7.4,15.219 -7.4,27.602 l 0,57.371 -16.3,0 0,14.559 16.3,0 0,19.558 18.69,5.641" /><path
         id="path78"
         style="fill:#af783c;fill-opacity:1;fill-rule:nonzero;stroke:none"
         d="m 3619.79,358.578 c 0,-23.019 13.03,-40.406 31.71,-40.406 18.27,0 31.95,17.168 31.95,40.848 0,17.82 -8.91,40.199 -31.51,40.199 -22.38,0 -32.15,-20.86 -32.15,-40.641 z m 83.22,1.102 c 0,-38.899 -27.17,-55.848 -52.37,-55.848 -28.25,0 -50.41,20.859 -50.41,54.109 0,34.981 23.25,55.618 52.15,55.618 30.2,0 50.63,-21.95 50.63,-53.879" /><path
         id="path80"
         style="fill:#af783c;fill-opacity:1;fill-rule:nonzero;stroke:none"
         d="m 3727.15,378.57 c 0,12.399 -0.22,23.039 -0.87,32.821 l 16.73,0 0.88,-20.86 0.64,0 c 4.79,14.117 16.51,23.028 29.34,23.028 1.95,0 3.47,-0.219 5.21,-0.438 l 0,-18.031 c -1.95,0.441 -3.9,0.441 -6.52,0.441 -13.47,0 -23.03,-10 -25.64,-24.34 -0.44,-2.613 -0.65,-5.871 -0.65,-8.921 l 0,-56.051 -19.12,0 0,72.351" /><path
         id="path82"
         style="fill:#af783c;fill-opacity:1;fill-rule:nonzero;stroke:none"
         d="m 3846.25,306.219 0,90.613 -14.55,0 0,14.559 14.55,0 0,5 c 0,14.769 3.48,28.238 12.17,36.711 7.18,6.957 16.74,9.777 25.64,9.777 6.96,0 12.6,-1.52 16.3,-3.039 l -2.61,-14.77 c -2.83,1.301 -6.52,2.379 -12.16,2.379 -16.3,0 -20.43,-14.121 -20.43,-30.41 l 0,-5.648 25.43,0 0,-14.559 -25.43,0 0,-90.613 -18.91,0" /><path
         id="path84"
         style="fill:#af783c;fill-opacity:1;fill-rule:nonzero;stroke:none"
         d="m 3916.88,358.578 c 0,-23.019 13.04,-40.406 31.73,-40.406 18.25,0 31.94,17.168 31.94,40.848 0,17.82 -8.91,40.199 -31.51,40.199 -22.38,0 -32.16,-20.86 -32.16,-40.641 z m 83.23,1.102 c 0,-38.899 -27.16,-55.848 -52.38,-55.848 -28.24,0 -50.41,20.859 -50.41,54.109 0,34.981 23.26,55.618 52.15,55.618 30.21,0 50.64,-21.95 50.64,-53.879" /><path
         id="path86"
         style="fill:#af783c;fill-opacity:1;fill-rule:nonzero;stroke:none"
         d="m 4024.25,378.57 c 0,12.399 -0.22,23.039 -0.87,32.821 l 16.74,0 0.86,-20.86 0.65,0 c 4.79,14.117 16.51,23.028 29.34,23.028 1.95,0 3.47,-0.219 5.21,-0.438 l 0,-18.031 c -1.95,0.441 -3.91,0.441 -6.51,0.441 -13.48,0 -23.04,-10 -25.65,-24.34 -0.43,-2.613 -0.65,-5.871 -0.65,-8.921 l 0,-56.051 -19.12,0 0,72.351" /><path
         id="path88"
         style="fill:#af783c;fill-opacity:1;fill-rule:nonzero;stroke:none"
         d="m 4096.19,382.922 c 0,11.078 -0.43,19.769 -0.87,28.469 l 16.73,0 0.88,-17.172 0.64,0 c 5.87,10 15.65,19.34 33.25,19.34 14.13,0 24.99,-8.688 29.55,-21.079 l 0.44,0 c 3.26,6.079 7.6,10.43 11.95,13.692 6.3,4.777 13.04,7.387 23.03,7.387 14.13,0 34.76,-9.129 34.76,-45.629 l 0,-61.711 -18.68,0 0,59.32 c 0,20.43 -7.61,32.383 -22.81,32.383 -11.09,0 -19.35,-8.051 -22.82,-17.172 -0.87,-2.828 -1.52,-6.078 -1.52,-9.559 l 0,-64.972 -18.69,0 0,63.011 c 0,16.739 -7.38,28.692 -21.94,28.692 -11.74,0 -20.65,-9.57 -23.68,-19.121 -1.1,-2.621 -1.53,-6.102 -1.53,-9.352 l 0,-63.23 -18.69,0 0,76.703" /><path
         id="path90"
         style="fill:#af783c;fill-opacity:1;fill-rule:nonzero;stroke:none"
         d="m 4332.86,359.891 c -20.86,0.429 -44.54,-3.262 -44.54,-23.692 0,-12.597 8.25,-18.238 17.81,-18.238 13.91,0 22.82,8.687 25.86,17.598 0.66,2.16 0.87,4.339 0.87,6.082 l 0,18.25 z m 18.47,-28.461 c 0,-9.141 0.44,-18.039 1.52,-25.211 l -17.17,0 -1.52,13.25 -0.64,0 c -5.87,-8.25 -17.17,-15.637 -32.16,-15.637 -21.3,0 -32.16,14.988 -32.16,30.199 0,25.418 22.6,39.328 63.22,39.11 l 0,2.179 c 0,8.469 -2.38,24.34 -23.89,24.11 -9.99,0 -20.21,-2.821 -27.6,-7.821 l -4.35,12.821 c 8.69,5.429 21.52,9.129 34.77,9.129 32.16,0 39.98,-21.95 39.98,-42.809 l 0,-39.32" /><path
         id="path92"
         style="fill:#af783c;fill-opacity:1;fill-rule:nonzero;stroke:none"
         d="m 4404.38,436.59 0,-25.199 27.38,0 0,-14.559 -27.38,0 0,-56.711 c 0,-13.043 3.7,-20.422 14.34,-20.422 5.22,0 8.26,0.43 11.08,1.301 l 0.87,-14.559 c -3.69,-1.3 -9.56,-2.609 -16.94,-2.609 -8.92,0 -16.08,3.039 -20.64,8.027 -5.22,5.871 -7.4,15.219 -7.4,27.602 l 0,57.371 -16.3,0 0,14.559 16.3,0 0,19.558 18.69,5.641" /><path
         id="path94"
         style="fill:#af783c;fill-opacity:1;fill-rule:nonzero;stroke:none"
         d="m 4501.31,306.219 0,90.613 -14.55,0 0,14.559 14.55,0 0,5 c 0,14.769 3.48,28.238 12.17,36.711 7.17,6.957 16.73,9.777 25.64,9.777 6.95,0 12.6,-1.52 16.3,-3.039 l -2.61,-14.77 c -2.83,1.301 -6.52,2.379 -12.17,2.379 -16.29,0 -20.43,-14.121 -20.43,-30.41 l 0,-5.648 25.43,0 0,-14.559 -25.43,0 0,-90.613 -18.9,0" /><path
         id="path96"
         style="fill:#af783c;fill-opacity:1;fill-rule:nonzero;stroke:none"
         d="m 4571.95,358.578 c 0,-23.019 13.04,-40.406 31.72,-40.406 18.26,0 31.95,17.168 31.95,40.848 0,17.82 -8.91,40.199 -31.51,40.199 -22.38,0 -32.16,-20.86 -32.16,-40.641 z m 83.23,1.102 c 0,-38.899 -27.17,-55.848 -52.37,-55.848 -28.25,0 -50.41,20.859 -50.41,54.109 0,34.981 23.24,55.618 52.15,55.618 30.2,0 50.63,-21.95 50.63,-53.879" /><path
         id="path98"
         style="fill:#af783c;fill-opacity:1;fill-rule:nonzero;stroke:none"
         d="m 4679.32,378.57 c 0,12.399 -0.22,23.039 -0.87,32.821 l 16.73,0 0.87,-20.86 0.65,0 c 4.78,14.117 16.51,23.028 29.34,23.028 1.95,0 3.47,-0.219 5.21,-0.438 l 0,-18.031 c -1.95,0.441 -3.91,0.441 -6.52,0.441 -13.47,0 -23.03,-10 -25.64,-24.34 -0.44,-2.613 -0.65,-5.871 -0.65,-8.921 l 0,-56.051 -19.12,0 0,72.351" /><path
         id="path100"
         style="fill:#af783c;fill-opacity:1;fill-rule:nonzero;stroke:none"
         d="m 4798.42,306.219 0,90.613 -14.55,0 0,14.559 14.55,0 0,5 c 0,14.769 3.47,28.238 12.17,36.711 7.17,6.957 16.73,9.777 25.64,9.777 6.95,0 12.6,-1.52 16.3,-3.039 l -2.61,-14.77 c -2.83,1.301 -6.52,2.379 -12.17,2.379 -16.29,0 -20.43,-14.121 -20.43,-30.41 l 0,-5.648 25.43,0 0,-14.559 -25.43,0 0,-90.613 -18.9,0" /><path
         id="path102"
         style="fill:#af783c;fill-opacity:1;fill-rule:nonzero;stroke:none"
         d="m 4859.92,378.57 c 0,12.399 -0.21,23.039 -0.87,32.821 l 16.73,0 0.88,-20.86 0.64,0 c 4.79,14.117 16.52,23.028 29.34,23.028 1.95,0 3.48,-0.219 5.22,-0.438 l 0,-18.031 c -1.96,0.441 -3.91,0.441 -6.53,0.441 -13.46,0 -23.03,-10 -25.63,-24.34 -0.44,-2.613 -0.66,-5.871 -0.66,-8.921 l 0,-56.051 -19.12,0 0,72.351" /><path
         id="path104"
         style="fill:#af783c;fill-opacity:1;fill-rule:nonzero;stroke:none"
         d="m 4995.54,369.012 c 0.21,11.957 -5,30.859 -26.52,30.859 -19.55,0 -27.81,-17.601 -29.32,-30.859 l 55.84,0 z m -56.07,-13.692 c 0.44,-25.851 16.74,-36.5 36.08,-36.5 13.69,0 22.16,2.391 29.12,5.442 l 3.47,-13.692 c -6.73,-3.039 -18.47,-6.738 -35.2,-6.738 -32.37,0 -51.71,21.508 -51.71,53.227 0,31.73 18.68,56.5 49.32,56.5 34.55,0 43.45,-29.989 43.45,-49.321 0,-3.918 -0.21,-6.738 -0.64,-8.918 l -73.89,0" /><path
         id="path106"
         style="fill:#af783c;fill-opacity:1;fill-rule:nonzero;stroke:none"
         d="m 5104.42,369.012 c 0.22,11.957 -5,30.859 -26.51,30.859 -19.55,0 -27.81,-17.601 -29.33,-30.859 l 55.84,0 z m -56.06,-13.692 c 0.44,-25.851 16.74,-36.5 36.07,-36.5 13.7,0 22.17,2.391 29.12,5.442 l 3.48,-13.692 c -6.74,-3.039 -18.48,-6.738 -35.2,-6.738 -32.38,0 -51.71,21.508 -51.71,53.227 0,31.73 18.68,56.5 49.31,56.5 34.55,0 43.46,-29.989 43.46,-49.321 0,-3.918 -0.21,-6.738 -0.64,-8.918 l -73.89,0" /><path
         id="path108"
         style="fill:#af783c;fill-opacity:1;fill-rule:nonzero;stroke:none"
         d="m 5139.43,317.52 c 0,7.82 5.43,13.691 13.04,13.691 7.61,0 12.82,-5.652 12.82,-13.691 0,-7.821 -5.21,-13.688 -13.26,-13.688 -7.38,0 -12.6,5.867 -12.6,13.688" /><path
         id="path110"
         style="fill:#2d68af;fill-opacity:1;fill-rule:nonzero;stroke:none"
         d="m 1113.75,199.68 33.03,0 0,-60.84 0.44,0 c 3.47,4.781 7.82,8.469 13.03,11.082 4.99,2.609 11.08,4.129 17.16,4.129 21.09,0 37.16,-14.563 37.16,-46.723 l 0,-61.9178 -33.03,0 0,58.4488 c 0,13.903 -4.77,23.461 -17.16,23.461 -8.7,0 -14.13,-5.64 -16.52,-11.718 -0.87,-1.961 -1.08,-4.793 -1.08,-7.172 l 0,-63.0198 -33.03,0 0,154.2698" /><path
         id="path112"
         style="fill:#2d68af;fill-opacity:1;fill-rule:nonzero;stroke:none"
         d="m 1298.49,180.34 0,-28.68 23.68,0 0,-24.34 -23.68,0 0,-38.4489 c 0,-12.832 3.25,-18.6797 13.03,-18.6797 4.56,0 6.73,0.207 9.78,0.8477 l 0.21,-24.9805 c -4.13,-1.5195 -12.16,-2.8281 -21.29,-2.8281 -10.65,0 -19.56,3.6992 -24.99,9.1289 -6.08,6.3008 -9.13,16.5195 -9.13,31.5117 l 0,43.4489 -14.12,0 0,24.34 14.12,0 0,19.781 32.39,8.899" /><path
         id="path114"
         style="fill:#2d68af;fill-opacity:1;fill-rule:nonzero;stroke:none"
         d="m 1399.98,180.34 0,-28.68 23.68,0 0,-24.34 -23.68,0 0,-38.4489 c 0,-12.832 3.26,-18.6797 13.04,-18.6797 4.56,0 6.74,0.207 9.77,0.8477 l 0.23,-24.9805 c -4.13,-1.5195 -12.17,-2.8281 -21.3,-2.8281 -10.65,0 -19.55,3.6992 -24.99,9.1289 -6.09,6.3008 -9.12,16.5195 -9.12,31.5117 l 0,43.4489 -14.12,0 0,24.34 14.12,0 0,19.781 32.37,8.899" /><path
         id="path116"
         style="fill:#2d68af;fill-opacity:1;fill-rule:nonzero;stroke:none"
         d="m 1497.57,91.0391 c 0,-2.6094 0.21,-4.7774 0.64,-6.9493 2.18,-8.9101 9.79,-15.6406 19.35,-15.6406 14.33,0 22.81,11.9414 22.81,29.9805 0,16.9493 -7.61,29.7613 -22.38,29.7613 -9.35,0 -17.6,-6.953 -19.78,-16.73 -0.43,-1.731 -0.64,-3.91 -0.64,-5.859 l 0,-14.5629 z m -33.03,24.9809 c 0,13.91 -0.44,25.652 -0.87,35.64 l 28.68,0 1.52,-14.781 0.44,0 c 7.82,11.09 19.99,17.172 35.42,17.172 23.24,0 44.1,-20.199 44.1,-54.1018 0,-38.6797 -24.55,-56.9297 -48.23,-56.9297 -12.83,0 -22.82,5.211 -27.6,12.1719 l -0.43,0 0,-52.80077 -33.03,0 0,113.62937" /><path
         id="path118"
         style="fill:#2d68af;fill-opacity:1;fill-rule:nonzero;stroke:none"
         d="m 1614.07,62.7891 c 0,11.7304 8.04,19.9922 19.34,19.9922 11.51,0 19.12,-8.0313 19.33,-19.9922 0,-11.3008 -7.6,-19.7696 -19.55,-19.7696 -11.3,0 -19.12,8.4688 -19.12,19.7696 z m 0,70.1909 c 0,11.731 8.04,19.989 19.34,19.989 11.51,0 19.12,-8.039 19.33,-19.989 0,-11.3 -7.6,-19.781 -19.55,-19.781 -11.3,0 -19.12,8.481 -19.12,19.781" /><path
         id="path120"
         style="fill:#2d68af;fill-opacity:1;fill-rule:nonzero;stroke:none"
         d="m 1684.71,36.9297 46.5,157.5313 21.94,0 -46.5,-157.5313 -21.94,0" /><path
         id="path122"
         style="fill:#2d68af;fill-opacity:1;fill-rule:nonzero;stroke:none"
         d="m 1778.38,36.9297 46.5,157.5313 21.95,0 -46.51,-157.5313 -21.94,0" /><path
         id="path124"
         style="fill:#2d68af;fill-opacity:1;fill-rule:nonzero;stroke:none"
         d="m 1904.65,151.66 8.69,-43.672 c 1.95,-10.8669 4.13,-22.5974 5.87,-34.7692 l 0.65,0 c 1.96,12.1718 5.22,24.121 7.6,34.5512 l 11.3,43.89 26.07,0 10.66,-42.371 c 3.04,-12.1679 5.86,-23.8984 7.81,-36.0702 l 0.44,0 c 1.52,11.9609 3.69,24.121 6.3,36.2932 l 8.91,42.148 32.38,0 -32.6,-106.2498 -30.85,0 -10,37.1601 c -2.82,10.4297 -4.77,19.9887 -6.95,33.2387 l -0.43,0 c -1.96,-13.25 -4.13,-23.2504 -6.74,-33.0277 l -10.64,-37.3711 -31.08,0 -31.07,106.2498 33.68,0" /><path
         id="path126"
         style="fill:#2d68af;fill-opacity:1;fill-rule:nonzero;stroke:none"
         d="m 2095.47,151.66 8.69,-43.672 c 1.95,-10.8669 4.13,-22.5974 5.87,-34.7692 l 0.65,0 c 1.96,12.1718 5.22,24.121 7.6,34.5512 l 11.3,43.89 26.07,0 10.66,-42.371 c 3.04,-12.1679 5.86,-23.8984 7.81,-36.0702 l 0.44,0 c 1.52,11.9609 3.69,24.121 6.3,36.2932 l 8.91,42.148 32.38,0 -32.6,-106.2498 -30.85,0 -10,37.1601 c -2.82,10.4297 -4.77,19.9887 -6.95,33.2387 l -0.43,0 c -1.96,-13.25 -4.13,-23.2504 -6.74,-33.0277 l -10.64,-37.3711 -31.08,0 -31.07,106.2498 33.68,0" /><path
         id="path128"
         style="fill:#2d68af;fill-opacity:1;fill-rule:nonzero;stroke:none"
         d="m 2286.29,151.66 8.69,-43.672 c 1.96,-10.8669 4.13,-22.5974 5.87,-34.7692 l 0.65,0 c 1.96,12.1718 5.22,24.121 7.61,34.5512 l 11.3,43.89 26.07,0 10.65,-42.371 c 3.05,-12.1679 5.87,-23.8984 7.82,-36.0702 l 0.44,0 c 1.51,11.9609 3.69,24.121 6.3,36.2932 l 8.91,42.148 32.37,0 -32.59,-106.2498 -30.86,0 -9.99,37.1601 c -2.83,10.4297 -4.78,19.9887 -6.95,33.2387 l -0.44,0 c -1.95,-13.25 -4.13,-23.2504 -6.73,-33.0277 l -10.65,-37.3711 -31.07,0 -31.07,106.2498 33.67,0" /><path
         id="path130"
         style="fill:#2d68af;fill-opacity:1;fill-rule:nonzero;stroke:none"
         d="m 2437.35,63.0117 c 0,11.9492 8.04,20.1992 19.56,20.1992 11.29,0 19.13,-8.0312 19.34,-20.1992 0,-11.5234 -7.82,-19.9922 -19.78,-19.9922 -11.08,0 -19.12,8.4688 -19.12,19.9922" /><path
         id="path132"
         style="fill:#2d68af;fill-opacity:1;fill-rule:nonzero;stroke:none"
         d="m 2517.99,45.4102 33.0313,0 0,154.27 -33.0313,0 0,-154.27 z" /><path
         id="path134"
         style="fill:#2d68af;fill-opacity:1;fill-rule:nonzero;stroke:none"
         d="m 2627.52,98.6406 c 0,-18.25 7.61,-31.9297 21.73,-31.9297 13.04,0 21.07,12.8086 21.07,32.1485 0,15.6406 -6.08,31.7306 -21.07,31.7306 -15.65,0 -21.73,-16.301 -21.73,-31.9494 z m 76.91,1.1016 c 0,-38.9024 -27.58,-56.7227 -56.05,-56.7227 -31.08,0 -54.97,20.4297 -54.97,54.75 0,34.5505 22.6,56.5005 56.92,56.5005 32.38,0 54.1,-22.391 54.1,-54.5278" /><path
         id="path136"
         style="fill:#2d68af;fill-opacity:1;fill-rule:nonzero;stroke:none"
         d="m 2814.85,108.43 c 0,1.949 -0.21,4.121 -0.65,6.07 -2.38,8.691 -8.69,14.559 -17.81,14.559 -12.17,0 -21.73,-10.86 -21.73,-30.1996 0,-15.8594 7.82,-28.25 21.51,-28.25 8.69,0 15.42,5.6523 17.6,13.2617 0.87,2.5977 1.08,6.0781 1.08,8.9102 l 0,15.6487 z m 33.03,-47.5902 c 0,-20.4296 -4.13,-37.1601 -16.3,-47.8007 C 2820.07,3.03906 2804.21,0 2788.56,0 c -14.13,0 -28.68,2.82031 -38.24,8.03906 l 6.52,25.19924 c 6.73,-3.9063 18.25,-8.0391 30.86,-8.0391 15.64,0 27.59,8.2617 27.59,28.0313 l 0,6.7383 -0.44,0 c -6.3,-8.6875 -16.51,-13.6875 -28.68,-13.6875 -26.29,0 -44.98,21.289 -44.98,51.7187 0,34.32 21.95,56.051 48.24,56.051 14.55,0 23.69,-6.301 29.11,-15.211 l 0.44,0 1.09,12.82 28.68,0 c -0.43,-6.949 -0.87,-15.859 -0.87,-31.719 l 0,-59.1012" /><path
         id="path138"
         style="fill:#2d68af;fill-opacity:1;fill-rule:nonzero;stroke:none"
         d="m 2924.18,98.6406 c 0,-18.25 7.61,-31.9297 21.74,-31.9297 13.03,0 21.07,12.8086 21.07,32.1485 0,15.6406 -6.08,31.7306 -21.07,31.7306 -15.65,0 -21.74,-16.301 -21.74,-31.9494 z m 76.92,1.1016 c 0,-38.9024 -27.59,-56.7227 -56.06,-56.7227 -31.07,0 -54.97,20.4297 -54.97,54.75 0,34.5505 22.6,56.5005 56.93,56.5005 32.38,0 54.1,-22.391 54.1,-54.5278" /><path
         id="path140"
         style="fill:#2d68af;fill-opacity:1;fill-rule:nonzero;stroke:none"
         d="m 3108.26,110.602 c 0,8.027 -3.47,21.507 -18.68,21.507 -13.91,0 -19.56,-12.82 -20.43,-21.507 l 39.11,0 z M 3069.38,88 c 0.85,-13.6914 14.55,-20.2109 29.98,-20.2109 11.29,0 20.43,1.5195 29.33,4.5625 l 4.35,-22.3828 c -10.87,-4.5586 -24.12,-6.7383 -38.47,-6.7383 -36.06,0 -56.71,20.8593 -56.71,54.1093 0,26.9492 16.73,56.7112 53.67,56.7112 34.33,0 47.38,-26.731 47.38,-53.02 0,-5.6521 -0.66,-10.6404 -1.1,-13.031 l -68.43,0" /><path
         id="path142"
         style="fill:#2d68af;fill-opacity:1;fill-rule:nonzero;stroke:none"
         d="m 3213.47,91.0391 c 0,-2.6094 0.22,-4.7774 0.65,-6.9493 2.17,-8.9101 9.78,-15.6406 19.34,-15.6406 14.34,0 22.81,11.9414 22.81,29.9805 0,16.9493 -7.6,29.7613 -22.37,29.7613 -9.35,0 -17.61,-6.953 -19.78,-16.73 -0.43,-1.731 -0.65,-3.91 -0.65,-5.859 l 0,-14.5629 z m -33.03,24.9809 c 0,13.91 -0.43,25.652 -0.87,35.64 l 28.68,0 1.53,-14.781 0.43,0 c 7.82,11.09 19.99,17.172 35.42,17.172 23.25,0 44.11,-20.199 44.11,-54.1018 0,-38.6797 -24.55,-56.9297 -48.24,-56.9297 -12.82,0 -22.82,5.211 -27.59,12.1719 l -0.44,0 0,-52.80077 -33.03,0 0,113.62937" /><path
         id="path144"
         style="fill:#2d68af;fill-opacity:1;fill-rule:nonzero;stroke:none"
         d="m 3331.92,74.0898 c 6.09,-3.6914 18.69,-7.8203 28.47,-7.8203 9.99,0 14.12,3.2618 14.12,8.6914 0,5.6485 -3.26,8.25 -15.43,12.3789 -22.16,7.4024 -30.63,19.3512 -30.42,31.9492 0,19.992 16.96,34.981 43.24,34.981 12.39,0 23.26,-3.04 29.77,-6.301 l -5.64,-22.809 c -4.79,2.602 -14.14,6.078 -23.04,6.078 -8.04,0 -12.6,-3.258 -12.6,-8.476 0,-5.211 4.12,-7.821 17.17,-12.383 20.2,-6.949 28.46,-17.379 28.67,-32.8087 0,-19.9883 -15.42,-34.5508 -45.84,-34.5508 -13.91,0 -26.29,3.2618 -34.34,7.6016 l 5.87,23.4687" /><path
         id="path146"
         style="fill:#2d68af;fill-opacity:1;fill-rule:nonzero;stroke:none"
         d="m 3443.63,63.0117 c 0,11.9492 8.05,20.1992 19.56,20.1992 11.3,0 19.12,-8.0312 19.34,-20.1992 0,-11.5234 -7.82,-19.9922 -19.78,-19.9922 -11.07,0 -19.12,8.4688 -19.12,19.9922" /><path
         id="path148"
         style="fill:#2d68af;fill-opacity:1;fill-rule:nonzero;stroke:none"
         d="m 3604.01,48.2305 c -5.87,-2.8203 -16.94,-5 -29.55,-5 -34.32,0 -56.28,21.0898 -56.28,54.3281 0,31.0704 21.3,56.4924 60.84,56.4924 8.69,0 18.26,-1.52 25.21,-4.129 l -5.22,-24.551 c -3.9,1.738 -9.77,3.258 -18.46,3.258 -17.39,0 -28.68,-12.391 -28.47,-29.7696 0,-19.3399 13.04,-29.7696 29.12,-29.7696 7.82,0 13.91,1.3086 18.9,3.4805 l 3.91,-24.3398" /><path
         id="path150"
         style="fill:#2d68af;fill-opacity:1;fill-rule:nonzero;stroke:none"
         d="m 3669.67,98.6406 c 0,-18.25 7.6,-31.9297 21.72,-31.9297 13.04,0 21.08,12.8086 21.08,32.1485 0,15.6406 -6.08,31.7306 -21.08,31.7306 -15.65,0 -21.72,-16.301 -21.72,-31.9494 z m 76.91,1.1016 c 0,-38.9024 -27.6,-56.7227 -56.05,-56.7227 -31.08,0 -54.98,20.4297 -54.98,54.75 0,34.5505 22.59,56.5005 56.93,56.5005 32.37,0 54.1,-22.391 54.1,-54.5278" /><path
         id="path152"
         style="fill:#2d68af;fill-opacity:1;fill-rule:nonzero;stroke:none"
         d="m 3788.78,117.762 c 0,13.258 -0.43,24.34 -0.87,33.898 l 28.03,0 1.31,-14.34 0.65,0 c 4.56,6.961 14.12,16.95 32.16,16.95 13.9,0 24.55,-7.168 29.11,-18.25 l 0.44,0 c 4.12,5.652 8.69,10 13.91,13.031 5.86,3.258 12.38,5.219 20.2,5.219 20.42,0 35.85,-14.34 35.85,-46.282 l 0,-62.5778 -32.16,0 0,57.8008 c 0,15.418 -4.99,24.34 -15.64,24.34 -7.82,0 -13.04,-5.223 -15.42,-11.531 -0.66,-2.379 -1.1,-5.641 -1.1,-8.469 l 0,-62.1408 -32.15,0 0,59.7618 c 0,13.25 -4.78,22.379 -15.42,22.379 -8.48,0 -13.48,-6.531 -15.43,-11.742 -1.1,-2.61 -1.31,-5.637 -1.31,-8.481 l 0,-61.9178 -32.16,0 0,72.3518" /><path
         id="path154"
         style="fill:#2d68af;fill-opacity:1;fill-rule:nonzero;stroke:none"
         d="m 3987.65,36.9297 46.49,157.5313 21.95,0 -46.5,-157.5313 -21.94,0" /><path
         id="path156"
         style="fill:#ffffff;fill-opacity:1;fill-rule:evenodd;stroke:none"
         d="m 3319.26,3099.53 c 33.25,0 52.82,23.48 58.68,54.77 l 123.26,770.84 c 0,23.48 -17.61,41.09 -41.08,41.09 l -1616.03,0 c -29.34,0 -52.82,-17.61 -56.74,-46.95 l -123.26,-778.67 c 0,-23.48 17.61,-41.08 41.09,-41.08 l 1614.08,0 0,0" /><path
         id="path158"
         style="fill:#171717;fill-opacity:1;fill-rule:evenodd;stroke:none"
         d="m 2374.29,3880.14 -39.13,-242.59 -268.04,0 41.09,242.59 -205.43,0 -119.34,-700.39 205.43,0 48.9,285.64 268.04,0 -48.92,-285.64 203.48,0 119.34,700.39 -205.42,0 0,0" /><path
         id="path160"
         style="fill:#171717;fill-opacity:1;fill-rule:evenodd;stroke:none"
         d="m 3070.78,3880.14 -391.29,0 -27.38,-162.38 385.41,0 c 70.44,0 99.78,-19.56 84.13,-109.56 l -23.48,-146.74 c -13.7,-74.33 -48.91,-119.33 -125.21,-119.33 l -178.04,0 48.92,295.42 -205.43,0 -76.3,-457.8 416.72,0 c 213.25,0 297.38,90 328.68,281.71 l 25.43,146.74 c 33.27,197.6 -48.91,271.94 -262.16,271.94 l 0,0" /></g></g></svg>